<svg xmlns="http://www.w3.org/2000/svg" version="1.0" viewBox="0 0 250 250"><g fill="#FFF" stroke-width="0"><path d="M0 125v125h250V0H0v125zm137.1-99.5c3.6.8 7.9 1.9 9.5 2.6 1.6.6 3.8 1.5 4.9 1.9 17.8 6.9 34.1 19.4 44.7 34.5 5.1 7.1 9.8 15.6 9.8 17.5 0 2.5-1.7.5-4.5-5.1-3.8-8-10.5-17.1-17.6-24-19.2-19-41.2-27.5-72.4-28.1-8-.1-8.5-.2-4-.9 6.5-.9 21.2-.1 29.6 1.6zm-15.8 3.6c16.4 2.4 34.1 9.6 46.7 18.9 7.3 5.4 20.6 18.7 19.6 19.7-.3.3-4-2.8-8.2-7.1-24.6-24.9-53-34.3-87.9-29.1-5.5.8-12.1 2.2-14.7 3.1-5.2 1.7-15.1 8-23 14.6-6 5.1-16.8 18.2-21 25.5-1.6 2.9-3.2 5.3-3.4 5.3-.8 0 1.7-5.3 5.1-10.8 2.2-3.5 2.6-4.6 1.1-2.8-3.7 4.4-11.7 20.2-14.8 29.1-3.2 9.5-3.6 8.9-.8-1.3 3.9-14 12.9-29.1 23.2-38.8C55.3 43.9 77 30.9 84.6 30.7c1.8-.1 3.1-.4 2.8-.9-.3-.4.1-.6.8-.3.7.2 3.6.1 6.3-.4 7.3-1.3 18.5-1.3 26.8 0zM74.2 57.7c4.7 4.2 7.1 17.2 8.8 47.3 1.5 28.1 3.7 39 7.8 39 5.6 0 11.3-14.4 18.2-45.5 7.6-34.7 10.9-43.5 16.2-43.5 2.4 0 2.3 2.5-.2 5.7-2.8 3.6-6.2 14.9-10.5 35.2-6 28.6-11.6 45-17 50.1-6.2 5.9-14.6 3.5-19-5.4-4.3-8.8-5.8-19.2-7.5-53.1-1.1-22.1-2.1-26.8-5.3-26.3-3.3.5-9.3 10.1-11.6 18.8-2.3 8.6-2.9 14.9-1.8 20.2.7 3.4.6 3.8-1.2 3.8-5.8 0-4-21.2 3.1-35.7 5.7-11.6 14-16 20-10.6zM237 84c1.6 3.1 1.1 5.9-1.5 8.5-1.3 1.4-3.5 2.5-4.9 2.5-4.3 0-9.2-8.4-6.7-11.4.7-.8 3.3-1.4 6.6-1.4 4.4 0 5.7.3 6.5 1.8zM24.4 98c-.8 3-1.8 11.3-2.1 18.5-.6 14.8 1.3 26.7 6.2 39 13 32.4 40.1 53.8 75 59.2 13.6 2 28.1 1.3 40-2.2 26.4-7.7 49-29.4 58-55.8 3.2-9.3 3.2-6.1.1 3.8-1.3 4.1-2 7.2-1.5 6.9.5-.3.6.2.3 1-.3.9-1.1 1.3-1.7.9-.6-.3-.7-.1-.3.6.4.6-.9 3.7-2.8 6.9-14.4 23.5-48.5 41.2-79.5 41.2-45.2 0-84.5-30.3-96.7-74.6-.9-3.3-1.8-10.9-1.9-16.9-.4-9.9-.3-10.4.5-4.5 2.4 16.7 3.2 20.9 5.1 26.8 1.2 3.5 2.3 6.1 2.5 5.9.2-.2-.5-2.9-1.5-6-4.8-13.8-5.3-36.6-1.1-50 2.5-8.1 3.6-8.6 1.4-.7zm186.7-1.3c1.4 1.2 1.8 1.1 3-.3 4.6-5.5 12.9-2.2 12.9 5.2 0 4.6-2.2 8.9-7.3 14.1-5.1 5.3-7.5 5.4-12.8.6-9.2-8.3-10.7-19.9-2.9-22.5 1.6-.6 4.5.6 7.1 2.9zm-77.9 5c2.2 2 2.5 7.3.3 7.3-.8 0-1.8-1.1-2.1-2.6-.9-3.5-5.7-3.1-6.3.6-.3 2.5 7.6 19.8 9.2 19.9.5.1 4.3-3.2 8.5-7.2 4.8-4.5 9.3-7.9 11.6-8.7 5.7-1.9 16.7-.6 27.2 3.1 4.9 1.7 12.5 4.4 16.9 6 8.1 2.9 14.5 3.6 18.7 2 3.2-1.2 7.8-6 9.5-9.9 1.5-3.7 3.3-4.2 3.3-1 0 4.1-3.8 10.3-8.2 13.1-6.3 4-13.2 3.9-25.8-.5-22.3-7.8-26.7-9-32.5-9.1-7.5-.1-10.4 1.3-20.3 10.5-6.4 5.9-7.6 7.6-7.4 9.9.9 8.5-6.4 18.9-13.3 18.9-4.9 0-7.5-2.9-7.5-8.2 0-3.7.6-4.7 4.9-8.9l4.9-4.7-3.6-7.4c-2.4-4.9-3.7-9.2-4-13-.4-5.3-.2-5.9 2.6-8.8 2.4-2.4 3.9-3 7.3-3 2.5 0 5 .7 6.1 1.7zm-86.4 60.2 2.5 6.4 2-5.4c1.1-3 2.3-5.8 2.8-6.3 1.3-1.4 3.9-1.6 3.9-.3-.1 2.2-7.5 16.1-8.8 16.5-1.2.4-6.5-10.1-7.8-15.5-.6-2.1-.3-2.4 1.2-2.1 1.2.2 2.6 2.5 4.2 6.7zm96.1-5.3c2 1.5 2.1 1.8.8 2.6-1 .5-2.3.4-3.5-.3-2.2-1.4-5.6-.5-5 1.3.3.7 2 1.6 3.9 2.1s4 1.3 4.7 1.9c1.7 1.4 1.5 5.3-.4 7.2-2.3 2.3-8.7 2.1-10.9-.4-2.5-2.7-1.4-3.4 2.9-1.9 2.9 1 3.8 1 5.1-.1 1.6-1.3 1.6-1.5-.1-2.7-1-.7-2.7-1.3-3.8-1.3-1.1 0-2.8-.7-3.8-1.7-5.6-5 3.7-11.2 10.1-6.7zm13.1 8c0 6.8-.3 8.4-1.5 8.4s-1.5-1.7-1.5-9c0-7.5.2-8.8 1.5-8.4 1.2.5 1.5 2.5 1.5 9zm-94-7.1c0 .8-.7 1.5-1.5 1.5s-1.5-.7-1.5-1.5.7-1.5 1.5-1.5 1.5.7 1.5 1.5zm19.3 0c.1.5-.6 1.1-1.5 1.3-1.1.2-1.8-.3-1.8-1.3 0-1.7 3-1.8 3.3 0zm68.7 0c0 .8-.7 1.5-1.5 1.5s-1.5-.7-1.5-1.5.7-1.5 1.5-1.5 1.5.7 1.5 1.5zm-88 9.1c0 4.8-.3 6.5-1.2 6.2-.8-.3-1.4-2.8-1.6-6.6-.2-5.1 0-6.2 1.3-6.2 1.2 0 1.5 1.3 1.5 6.6zm6.4-2.5c.9 2.2 2.1 3.7 2.6 3.4.6-.3 1-1 1-1.5 0-2.6 2.1-5.9 3.4-5.4 1.2.4 1 1.5-.9 6.2-3.1 7.6-4.8 7.8-8 .7-2.3-5.4-2.5-7.5-.5-7.5.4 0 1.5 1.8 2.4 4.1zm27.6 2.8v5.7l-5 .2c-4.3.2-5.2-.1-6.6-2.4-3.4-5.2 1-10.4 8-9.6l3.6.4v5.7zm11.8-5.3c1.8 1.2 2.2 2.5 2.2 6.5 0 5.9-2.3 6.5-2.8.8-.2-1.9-.8-3.9-1.4-4.6-1.5-1.9-3.8-.3-3.8 2.6 0 1.5-.6 3.6-1.4 4.7-1.3 1.7-1.5 1.7-2.1.3-.3-.9-.5-3.6-.3-6 .3-4 .6-4.5 3.3-5 1.7-.4 3.2-.7 3.5-.8.3 0 1.6.6 2.8 1.5zm14.3-.6c1.2.7 1.9 2.1 1.9 4 0 2.8-.2 3-4.1 3-2.6 0-3.8.4-3.4 1.1.4.5 1.8.9 3.3.7 3-.4 4.1 1.8 1.3 2.7-2.8.9-7-.4-8.1-2.5-3.3-6.2 2.9-12.3 9.1-9zm27.9 6.1c0 4.6-.3 5.9-1.5 5.9s-1.5-1.3-1.5-5.8c0-3.2.3-6.2.6-6.5 1.5-1.5 2.4.8 2.4 6.4zm33.8-.3.3 5.9-4.8.1c-5.5.2-8.3-1.8-8.3-5.7.1-4.9 3.1-7.1 9-6.6l3.5.3.3 6zM81 166c0 2.7.1 5.3.2 5.7.1.5-.6.9-1.5 1.1-1.4.3-1.7-.6-1.7-5.7 0-4.8.3-6.1 1.5-6.1 1.1 0 1.5 1.2 1.5 5zm81.3-1.3 1.5 3.8 1.6-3.8c.9-2 2.3-3.7 3.1-3.7 1.9 0 1.9-.2-.6 6.4-2.9 7.5-5 7.5-7.8.1-2.5-6.6-2.5-6.5-.7-6.5.8 0 2.1 1.7 2.9 3.7zm-55.2 13.8.6-4 .2 4.7c.1 5.6-.9 6-4.1 1.7l-2.3-3.1-.6 3.4c-.6 2.9-.6 2.7-.7-1.7l-.1-5 3.2 4 3.2 3.9.6-3.9zm14.6 3.2c-.2 1.6-.4.5-.4-2.2 0-2.8.2-4 .4-2.8.2 1.3.2 3.5 0 5zm9.6-6c-1.9.4-2.3 1.1-2.3 4.4 0 3.1.4 3.9 1.9 3.9 2.1 0 3.7-1.6 4.4-4.5.4-1.5.5-1.4.6.7.1 2.9-2.2 4.8-5.8 4.8-1.8 0-2.1-.6-2.1-5 0-4.8.1-5 2.8-4.9 2.3.2 2.4.2.5.6zm-15.4 5.5c-.2 3.2-.2 3.2-.6.5-.4-2.2-.9-2.8-2.6-2.5-1.5.2-2.2 1-2.1 2.5 0 1.2-.3 2-.8 1.7-2.4-1.5.4-5.4 3.9-5.4 2 0 2.3.5 2.2 3.2zm2.8.5c-.3 1-.5.4-.5-1.2 0-1.7.2-2.4.5-1.8.2.7.2 2.1 0 3zm25.1-1.5c.3 1.3-.3 1.8-2.2 1.8-1.4 0-2.6.5-2.6 1.1 0 .7 1 .9 2.5.7 1.3-.3 2.2-.1 1.9.3-.9 1.5-4.3 1-5.3-.8-1.4-2.5.5-5.5 3.2-5.1 1.2.2 2.3 1.1 2.5 2zm5.2-1.3-2.5.7 2.3 1.2c1.2.7 2.2 1.7 2.2 2.3 0 .6-.7.3-1.6-.5-.8-.9-2-1.6-2.5-1.6s-.9-.7-.9-1.5c0-1 .9-1.5 2.8-1.4l2.7.1-2.5.7zm5 .6c0 .8-.2 1.5-.4 1.5s-.6-.7-1-1.5c-.3-.8-.1-1.5.4-1.5.6 0 1 .7 1 1.5zm7.9.7c-.1 1.7-.2 1.9-.6.5-.3-1-1.4-1.7-3-1.7-2.2 0-2.5.4-2.1 2.5.3 1.3.1 2.2-.3 1.9-1.1-.6-1.2-3.8-.2-4.7.3-.4 1.9-.7 3.5-.7 2.3 0 2.8.4 2.7 2.2zm5.1-1.5c-.8.3-1.8 1.1-2.2 1.7-.5.7-.8.4-.8-.7s.7-1.7 2.3-1.6c1.5 0 1.7.2.7.6zm15.8 0c-1 .2-1.8 1.7-2.1 3.6-.4 3.1-.4 3.1-.5-.6-.2-3.3.1-3.7 2.1-3.6 1.5.1 1.7.3.5.6zm-4.8 1.8c0 .8-.7 1.5-1.5 1.5-1.3 0-1.4-.3-.3-1.5 1.6-1.8 1.8-1.8 1.8 0zm-8.3 2.7c-.3.8-.6.5-.6-.6-.1-1.1.2-1.7.5-1.3.3.3.4 1.2.1 1.9zm3.6-.6c-.5 1.4-.2 1.6 2.3 1 2.2-.6 2.6-.5 1.8.4-1.6 1.6-4.8.8-5.2-1.3-.2-.9.1-1.7.7-1.7s.8.7.4 1.6zm-24.8 2.2c-.3.3-1.1 0-1.8-.7-.9-1-.8-1.1.6-.5 1 .3 1.5.9 1.2 1.2zm13.4 2.2c0 1-.3.8-.9-.5-1.2-2.7-1.2-4.3 0-2.5.5.8.9 2.2.9 3zm-2.2 1.6c-.3.3-1.2.4-1.9.1-.8-.3-.5-.6.6-.6 1.1-.1 1.7.2 1.3.5z"/><path d="M227 86.8c0 .4.7 1.8 1.6 3 1.3 1.8 1.9 2.1 3 1.1 1.8-1.5 1.8-4 0-3.3-.8.3-1.7.1-2.1-.5-.7-1.3-2.5-1.5-2.5-.3zm-22.8 12.4c-.7.7-1.2 1.8-1.2 2.5 0 2 3.5 8.6 6.6 12.2 2.5 3 2.7 3.1 4.5 1.5 3.8-3.4 8.1-11.2 7.7-14.1-.4-4-3.4-4.2-5.6-.4-2.1 3.9-3.5 3.9-6.2.1-2.3-3.2-3.9-3.7-5.8-1.8zm-82.5 41.6c-2.8 3-3.5 6-1.6 7.9.6.6 1.8.9 2.6.6 3.3-1.3 5.9-11.3 3-11.3-.7 0-2.5 1.3-4 2.8zm-34.6 24.1c-1.3 2.4.9 5.7 3.3 4.8 2.3-.9 3.1-3.4 1.6-5.2-1.7-2-3.7-1.9-4.9.4zm29.4-.9c-.4.6.5 1 2 1s2.4-.4 2-1c-.3-.6-1.2-1-2-1s-1.7.4-2 1zm58.6.9c-1.3 2.4.9 5.7 3.3 4.8 2.3-.9 3.1-3.4 1.6-5.2-1.7-2-3.7-1.9-4.9.4zM139 180c0 .5.9 1 2 1s2-.5 2-1c0-.6-.9-1-2-1s-2 .4-2 1z"/></g><path fill="#FCC" d="M113.8 23.7c1.2.2 3 .2 4 0 .9-.3-.1-.5-2.3-.4-2.2 0-3 .2-1.7.4zm-10 5c2.3.2 6.1.2 8.5 0 2.3-.2.4-.4-4.3-.4s-6.6.2-4.2.4zm16.8 1.2c-.3.4 1.9 1.1 4.9 1.5 3.1.3 7.3 1.2 9.5 2s4.2 1 4.5.6c.2-.4-3.5-1.7-8.3-2.9-10.1-2.4-9.9-2.4-10.6-1.2zm-39.3 1.2c-3 .9-4.6 2.9-2.3 2.9.6 0 1-.5 1-1.1 0-.7 1-.9 2.5-.7 1.3.3 2.2.2 2-.3-.3-.4.1-1 .7-1.2 2.1-.9-.5-.6-3.9.4zm75.4 1.7c-.2.4 1.5 1.7 3.9 2.9s4.4 1.8 4.4 1.4c0-1.2-7.8-5.2-8.3-4.3zM70 36c-1.3.8-1.2 1 .3 1 .9 0 1.7-.5 1.7-1 0-1.2-.1-1.2-2 0zm-5.4 3.6c-.3.8-1.1 1.2-1.7.8-.8-.4-.9-.3-.5.4.5.9 1.3.9 2.7.2 1.1-.6 1.7-1.5 1.4-2.1-.8-1.3-1.2-1.1-1.9.7zm-6.1 3.5c-.3.4.2.6 1 .5 2.1-.3 2.8-1.3 1-1.3-.9 0-1.8.4-2 .8zm114.1 0c.3.5 1.2.9 2.1.9 1.9 0 .9-1.3-1.2-1.6-.8-.1-1.3.2-.9.7zM56.5 46c-.4.6-1 .8-1.4.6-.4-.3-.8.1-.8.9 0 1.3.4 1.2 1.9-.2 1.8-1.6 2.2-2.3 1.4-2.3-.3 0-.8.5-1.1 1zm121.1-.1c-.4.5-.2 1.2.3 1.5.5.4 1.2.2 1.5-.3.4-.5.2-1.2-.3-1.5-.5-.4-1.2-.2-1.5.3zm-10.1 3c-.3.5-.2 1.2.3 1.5.5.3.9-.1.9-.9 0-1.7-.3-1.9-1.2-.6zM44.9 54.1c-2.7 2.8-4.9 5.5-4.9 6 0 .6-.4.8-.9.4-1-.6-2.4 1.1-2.7 3.2-.2.9.3 1 1.6.3.9-.5 2.1-.6 2.5-.2.5.4.5.1.1-.6-.9-1.4 1.2-4.5 2.4-3.7.5.3 1.2 0 1.6-.6.4-.8.3-.9-.4-.5-1.6 1-1.5 0 .4-2.9 1.6-2.5 4.2-3.6 2.8-1.3-.5.9-.2.8.9-.1 1-.8 1.5-1.6 1.2-1.9-.3-.3 0-1.1.6-1.9.6-.7.8-1.3.5-1.3-.4 0-3 2.3-5.7 5.1zm22.9 1.6c.7.3 1.6.2 1.9-.1.4-.3-.2-.6-1.3-.5-1.1 0-1.4.3-.6.6zm56 2c-2.7 3.1-5 7.6-6.9 14-.6 2.3-1.6 4-2 3.7-.5-.3-.6.2-.2 1.1.7 2-1.7 12.6-2.8 12-.4-.3-.5.4-.2 1.4.4 1.6-.9 10-2.4 15.1-.2.8.5-.1 1.6-2s2.1-3.1 2.1-2.5c.1.5 1.2-4 2.6-10 3.1-14.4 6.9-26.6 9.2-29.6 1.5-1.9 2.6-5.9 1.7-5.9-.1 0-1.3 1.2-2.7 2.7zm65.6 1.1c.4.3 1.4.7 2.2.8.9.1 1.3 0 1-.4-.4-.3-1.4-.7-2.2-.8-.9-.1-1.3 0-1 .4zM57 63c-.6 1.1-.8 2-.6 2 .3 0 1-.9 1.6-2 .6-1.1.8-2 .6-2-.3 0-1 .9-1.6 2zm124-.7c0 .2.6 1 1.4 1.6 1.1.9 1.6.9 2.2-.1.4-.7.4-1-.1-.6-.4.4-1.4.3-2.2-.3-.7-.6-1.3-.9-1.3-.6zM36.3 67.5c0 .8.4 1.2.9.9.5-.3.6-1 .3-1.5-.9-1.3-1.2-1.1-1.2.6zm163.3 4.3c-.3.5.1.9.9.9s1.2-.4.9-.9c-.3-.4-.7-.8-.9-.8-.2 0-.6.4-.9.8zM29.2 75.6c1 1 2 1.6 2.2 1.3.3-.3-.5-1.1-1.7-1.8-2.1-1.3-2.1-1.2-.5.5zm52 9.9c0 1.6.2 2.2.5 1.2.2-.9.2-2.3 0-3-.3-.6-.5.1-.5 1.8zm145.9-.2c.2.1 1.3.9 2.4 1.7 1.9 1.4 1.9 1.4.6-.3-.7-.9-1.8-1.7-2.4-1.7-.6 0-.8.1-.6.3zM71.3 92c0 2.5.2 3.5.4 2.2.2-1.2.2-3.2 0-4.5-.2-1.2-.4-.2-.4 2.3zM227 88.9c0 .6.4 1.3 1 1.6.6.3.7-.1.4-.9-.7-1.8-1.4-2.1-1.4-.7zM51.1 91.6c0 1.1.3 1.4.6.6.3-.7.2-1.6-.1-1.9-.3-.4-.6.2-.5 1.3zm173.9-.2c0 .2.8 1 1.8 1.7 1.5 1.3 1.6 1.2.3-.4s-2.1-2.1-2.1-1.3zM51.1 97.6c0 1.1.3 1.4.6.6.3-.7.2-1.6-.1-1.9-.3-.4-.6.2-.5 1.3zm30.7 1.8c.2 2.1-.2 4.4-1.2 5.8-.9 1.2-1.6 3.4-1.7 4.8l-.1 2.5-.8-2.5c-.7-2.3-.8-2.3-1 1-.2 3.2-.3 3.3-.9 1-.6-2.1-.9-1.7-1.8 2.8-1.2 6 .3 17 3 23.2 1.6 3.4 1.6 3.4 1.1.5-.5-2.4-.3-2.7.6-1.5.9 1.2 1.1.8.7-2-.2-1.9-.1-4.4.3-5.5.6-1.6.9-1.1 1.4 2.2.4 2.4 1.2 4.6 1.7 4.9.5.3.9.2.8-.3-.1-.4-.1-1.5.1-2.3.1-1.1.4-.9 1 .5.7 1.4.8.8.3-2-.7-4.6-1.3-5.9-1.3-2.7 0 1.2-.4 2.2-.9 2.2s-.5-1.6 0-3.8c1-4 .1-32.2-1-32.2-.4 0-.5 1.5-.3 3.4zm121.9-1.9c.3 1 0 1.5-.8 1.3-.9-.2-1.5.9-1.7 3.2-.2 2.9 0 3.2.8 1.7.6-.9.9-2.1.6-2.6-.3-.4.6-1.4 2-2.1 1.8-1 2.1-1.6 1.2-2.2-2-1.2-2.8-.9-2.1.7zm6.3-1.1c0 .2.8 1 1.8 1.7 1.5 1.3 1.6 1.2.3-.4s-2.1-2.1-2.1-1.3zm9 1c0 .2.7.7 1.6 1 .8.3 1.2.2.9-.4-.6-1-2.5-1.4-2.5-.6zm-99.6 5.8-1.9 2.3 2.3-1.9c2.1-1.8 2.7-2.6 1.9-2.6-.2 0-1.2 1-2.3 2.2zm4.8 4.8c0 1.4.2 1.9.5 1.2.2-.6.2-1.8 0-2.5-.3-.6-.5-.1-.5 1.3zm-52 2c0 1.9.2 2.7.5 1.7.2-.9.2-2.5 0-3.5-.3-.9-.5-.1-.5 1.8zm37.8-1c0 .5.5 1 1 1 .6 0 1-.5 1-1 0-.6-.4-1-1-1-.5 0-1 .4-1 1zm53.5 4c-1.1.5-1.7.9-1.4.9 5 .7 13.5 2.6 17.6 4.1 2.9 1.1 6 1.7 6.9 1.3 1.1-.4 1.5-.2 1.1.4-.6 1 7.2 4.7 8.1 3.9.2-.2-1.2-1-3.2-1.7-1.9-.7-3.3-1.6-3.1-1.9.2-.4-2-1.7-5.1-3-3.8-1.6-5.1-2.6-4.2-3.2.8-.5.1-.6-1.6-.2-1.6.4-2.7.3-2.4-.2.8-1.2-10.1-1.5-12.7-.4zm5.2.6c-.3.3-1.2.4-1.9.1-.8-.3-.5-.6.6-.6 1.1-.1 1.7.2 1.3.5zm-10.9 1.1c.7.3 1.6.2 1.9-.1.4-.3-.2-.6-1.3-.5-1.1 0-1.4.3-.6.6zm-5.9 2.4-2.4 2 3-1.7c3.9-2.4 4-2.4 2.8-2.4-.6 0-2.1.9-3.4 2.1zm-12 5.6c-1.3 1.6-1.2 1.7.4.4 1.6-1.3 2.1-2.1 1.3-2.1-.2 0-1 .8-1.7 1.7zm-1 6c-1.3 1.6-1.2 1.7.4.4 1.6-1.3 2.1-2.1 1.3-2.1-.2 0-1 .8-1.7 1.7zm-3.7 7.3c0 1.9.2 2.7.5 1.7.2-.9.2-2.5 0-3.5-.3-.9-.5-.1-.5 1.8zm-13.8 4.2-1.9 2.3 2.3-1.9c2.1-1.8 2.7-2.6 1.9-2.6-.2 0-1.2 1-2.3 2.2zm12.3 2.7c-.4 1.7-.3 2.1.5 1.3.5-.5.8-1.6.6-2.3-.3-.8-.7-.3-1.1 1zm-54.7-.5c0 .2.7.9 1.5 1.6 1.3 1.1 1.4 1 .9-.4-.5-1.4-2.4-2.3-2.4-1.2zm9.7 1.8c.2.5 1.3.8 2.3.8 1 0 2.1-.3 2.3-.8.3-.4-.8-.7-2.3-.7-1.5 0-2.6.3-2.3.7zm41.2 5c-1.7 2.4-1.8 2.9-.6 1.9 1.8-1.4 4.2-5.1 3.3-5.1-.3 0-1.5 1.5-2.7 3.2zm2 8.5c-1.3 1.6-1.2 1.7.4.4 1.6-1.3 2.1-2.1 1.3-2.1-.2 0-1 .8-1.7 1.7zm8.8 1.4c.7.7 1.5 1 1.8.7.3-.3-.2-.9-1.2-1.2-1.4-.6-1.5-.5-.6.5zm14.3 1c0 .5-.4.7-1 .4-1.6-1-1.2 4.5.5 6.1 1.3 1.4 1.5 1 1.5-3 0-2.5-.2-4.6-.5-4.6s-.5.5-.5 1.1zM73.2 162c-2.1 5.6-2.3 6.7-.8 6.7 1.9 0 3.5-4.6 2.6-7.2-.7-1.9-.8-1.9-1.8.5zm74.5-1.3c-.4.3-.6 2.7-.6 5.2.1 2.5.3 3.8.6 2.8.2-.9.9-1.5 1.4-1.2.5.4.9-.5.9-1.9s-.4-2.6-1-2.6c-.5 0-1-.5-1-1.1 0-.5.5-.7 1.2-.3.7.4.8.3.4-.4-.8-1.4-1-1.4-1.9-.5zm29.1 0c.7.3 1.6.2 1.9-.1.4-.3-.2-.6-1.3-.5-1.1 0-1.4.3-.6.6zm-98.7 5c.1 2.6.4 3.8.6 2.5.2-1.2.9-2.2 1.4-2.2 1.5 0 .7-4.3-.8-4.8-.9-.3-1.3 1-1.2 4.5zm6.3-2.2c-.8 1.3-1.4 3.2-1.1 4.2.4 1.4.5 1.2.6-.5.1-1.4.6-2.2 1.4-1.9.6.2 1.7-.3 2.4-1.2.9-1.2 1.6-1.4 3-.5 1.4.8 2.2.7 3.7-.8 1.9-1.8 1.8-1.8-3.2-1.8-4.4 0-5.4.4-6.8 2.5zm74-.9c.3.9.6 2 .6 2.5s.6.4 1.4-.3c1.6-1.5 1-3.8-1.1-3.8-1 0-1.3.6-.9 1.6zm8.6-1.2c0 .2.7.6 1.5 1 .8.3 1.5.1 1.5-.4 0-.6-.7-1-1.5-1s-1.5.2-1.5.4zm-99.6 2c.5 1.3.2 1.7-.8 1.3-1.1-.4-1.2 0-.3 2.3.6 1.7 1.6 2.6 2.4 2.3 1.4-.5 1-3.3-.9-6.3-.8-1.2-.8-1.1-.4.4zm30.8 1.1c0 1.6.2 2.2.5 1.2.2-.9.2-2.3 0-3-.3-.6-.5.1-.5 1.8zm-38.9 2.9c.1 3.1.7 5 1.5 5.2.7.1.8 0 .2-.3-.5-.2-1-.9-1-1.4 0-.6.5-.7 1-.4.6.4 1-.7 1-2.5 0-1.7-.4-2.9-.9-2.5-.5.3-1.2-.3-1.4-1.2-.3-1-.5.4-.4 3.1zM139 164c-1.4.4-1.8.9-1 .9.8.1 2.1.5 2.9 1 1.2.8 1.2 1.2.2 2.4s-.8 1.5 1.1 1.3c2.4-.1 3.1-2.7 1.4-5.4-.8-1.3-1-1.3-4.6-.2zm-85.5 1.1c-.4.6-.5 1.2-.2 1.5.2.3.7-.2 1-1.1.7-1.7.1-2-.8-.4zm-3.4 1.4c-.1 1.7-.3 1.7-1.1.5-.8-1.3-1-1.2-1 .4s-.2 1.7-1.7.5c-1.5-1.3-1.5-1.1.1 1.8 1.8 3.6 2.8 4 4.6 1.8.9-1 .9-2.2.2-4.2-.8-2.2-1.1-2.4-1.1-.8zm51.1.5c0 1.4.2 1.9.5 1.2.2-.6.2-1.8 0-2.5-.3-.6-.5-.1-.5 1.3zm13.5.7c-.4.3-.1 1.3.6 2.1 1 1.3.9 1.5-.5.9-1-.3-1.8-.4-1.8-.1 0 1 5.6 2.5 7.7 1.9 3.3-.8 2.8-2.5-.6-2.5-4.7 0-4.6-1.8.1-2.3l4.3-.4-4.6-.1c-2.5-.1-4.9.1-5.2.5zM98.2 170c0 1.4.2 1.9.5 1.2.2-.6.2-1.8 0-2.5-.3-.6-.5-.1-.5 1.3zm32.8-1.2c0 1.1 3.4 4.2 4.5 4.2.5 0 0-.7-1.1-1.5-1.2-.9-1.4-1.4-.6-1.5.7 0 1-.5.7-1-.8-1.2-3.5-1.3-3.5-.2zm67.5.2c.3.5.8 1 1.1 1 .2 0 .4-.5.4-1 0-.6-.5-1-1.1-1-.5 0-.7.4-.4 1zm-166.5.4c0 .2.7.9 1.5 1.6 1.3 1.1 1.4 1 .9-.4-.5-1.4-2.4-2.3-2.4-1.2zm107.8 3.3c.7.3 1.6.2 1.9-.1.4-.3-.2-.6-1.3-.5-1.1 0-1.4.3-.6.6zm8 0c.7.3 1.6.2 1.9-.1.4-.3-.2-.6-1.3-.5-1.1 0-1.4.3-.6.6zm-113.2 2c-.3.7-.1 1.2.4 1 .4-.1 3.2 2.3 6 5.3 2.9 3 4.6 4.6 3.9 3.6-.8-1.1-1.3-2.2-1.1-2.5.1-.3-.1-.6-.5-.6-1.8-.1-3.4-1.8-2.9-3.2.3-.8.2-1.2-.3-.9-1.1.7-3.4-2-2.7-3.2.3-.5-.1-.9-.9-.9s-1.6.6-1.9 1.4zm160.4-.2c-1.9 2.2-.8 2.5 1.3.3.9-1 1.3-1.8.8-1.8s-1.4.7-2.1 1.5zm-56.4 4.4c-.4.5.3.7 1.4.4 2.3-.6 2.6-1.3.6-1.3-.8 0-1.7.4-2 .9zm50.3 1.8c-1.3 1.6-1.2 1.7.4.4 1.6-1.3 2.1-2.1 1.3-2.1-.2 0-1 .8-1.7 1.7zm-67.8.9c0 1.1.3 1.4.6.6.3-.7.2-1.6-.1-1.9-.3-.4-.6.2-.5 1.3zm-6 1c0 1.1.3 1.4.6.6.3-.7.2-1.6-.1-1.9-.3-.4-.6.2-.5 1.3zm60.7-.9c.7.3 1.6.2 1.9-.1.4-.3-.2-.6-1.3-.5-1.1 0-1.4.3-.6.6zm9.1 4c-1.3 1.6-1.2 1.7.4.4 1.6-1.3 2.1-2.1 1.3-2.1-.2 0-1 .8-1.7 1.7zm-139 3.5c1.9 2.1 3.7 3.8 4 3.8.2 0 .1-.3-.2-.7-.4-.3-.1-1.3.6-2.2 1-1.4 1-1.4-.4-.4-2.2 1.8-4.4-.4-2.6-2.6 1-1.4 1-1.4-.4-.4-1.2 1-1.8 1-3 0-.8-.6.2.5 2 2.5zm134.8 1.1c-.3.8 0 1.4.7 1.4s1.3-.6 1.3-1.4c0-.7-.4-1.3-.8-1.3s-.9.6-1.2 1.3zm-128.2 1.9c.3.8 1.8 2.2 3.3 3.1 1.5.9 4.1 2.9 5.7 4.4 1.7 1.6 2.6 2.5 2.1 2-.6-.4-1.5-.7-2-.7-.6 0-.3.7.7 1.5 1.1.7 2.6 1.1 3.5.8 1-.4 1.3-.2.8.5-.5.8-.1 1 1 .5 1.2-.4 1.5-.3 1 .5-1.1 1.9 14.1 8.2 27.1 11.2 1.9.5 3.1.4 2.7-.1-.3-.5-1.5-.9-2.7-.9-1.8 0-1.9-.2-.7-1.1 1.2-.8 1-.9-.7-.4-1.4.4-2.3.2-2.3-.5 0-.6-.5-.8-1.1-.5-1.6 1-6.1-.4-5.3-1.6.4-.8-.1-.9-1.6-.4-1.7.5-2.1.4-1.5-.6.6-.9.3-1.1-.8-.6-1 .3-1.7.3-1.7-.2s-2.6-2-5.7-3.3c-3.2-1.4-8.7-4.7-12.2-7.4-10.8-8.2-10.2-7.9-9.6-6.2zm125.8 2.3c0 .8.4 1.2.9.9.5-.3.6-1 .3-1.5-.9-1.3-1.2-1.1-1.2.6zm-5.1 2.8c-1.2 1.3-2.2 2.7-2.2 3.1 0 1.3 4.4-2.3 4.6-3.9.3-2 .1-1.9-2.4.8zm-6.4 4.5c-1.5 1-3 2.2-3.2 2.9-.3.6 1.1.3 3-.9 1.9-1.1 3.4-2.4 3.4-2.9 0-1.1.2-1.1-3.2.9zM158 207c-.8.5-1.2 1.2-.9 1.5.4.3 1.2-.1 1.9-1 1.4-1.7 1.1-1.9-1-.5zm-53.2 10.7c.6.2 1.8.2 2.5 0 .6-.3.1-.5-1.3-.5-1.4 0-1.9.2-1.2.5z"/><path fill="#CCC" d="M106.7 24.7c1.8.2 5 .2 7 0 2.1-.2.7-.4-3.2-.4-3.8 0-5.5.2-3.8.4zm26.8 1.3c-.3.5-.2 1 .4 1 .5 0 1.3-.5 1.6-1 .3-.6.2-1-.4-1-.5 0-1.3.4-1.6 1zm9.5 1.9c0 .5 1.9 1.4 4.3 2 2.3.7 4.9 1.4 5.7 1.7.9.3.9.1-.2-.6-2.9-1.8-9.8-4-9.8-3.1zm-24.2 1.8c.7.3 1.6.2 1.9-.1.4-.3-.2-.6-1.3-.5-1.1 0-1.4.3-.6.6zM88 31c0 .5.5 1 1.1 1 .5 0 .7-.5.4-1-.3-.6-.8-1-1.1-1-.2 0-.4.4-.4 1zm-6 1c-2.3.7-2.3.8-.3.9 1.2.1 2.5-.4 2.8-.9.3-.6.5-1 .3-.9-.2.1-1.4.5-2.8.9zm-7 2c-.8.5-1 1-.5 1 .6 0 1.7-.5 2.5-1s1.1-1 .5-1c-.5 0-1.7.5-2.5 1zm68.8 2c3 1 6.9 2.9 8.8 4 1.9 1.2 3.4 1.7 3.4 1.2 0-1.1-10.2-5.8-14.5-6.6-1.6-.4-.6.3 2.3 1.4zM67 38c-.8.5-1 1-.5 1 .6 0 1.7-.5 2.5-1s1.1-1 .5-1c-.5 0-1.7.5-2.5 1zm-8 5.2c-5.3 4-9 7.6-9 8.6 0 .2 1.9-1.3 4.3-3.4 2.3-2.2 5.8-5.1 7.7-6.6 1.9-1.5 3.3-2.7 3-2.7-.3-.1-3 1.8-6 4.1zm111-2.8c0 .3.9 1 2 1.6 1.1.6 2 .8 2 .6 0-.3-.9-1-2-1.6-1.1-.6-2-.8-2-.6zm-13 1.2c0 1 6.5 5.4 7.9 5.4.5 0 1.2.6 1.4 1.2.4.8.6.9.6.2.1-.7-1-1.9-2.4-2.8-1.4-.9-3.6-2.3-5-3.2-1.4-.9-2.5-1.2-2.5-.8zm24.2 8.3c3.5 3.3 6.5 5.7 6.8 5.4.6-.6-10.9-11.3-12.2-11.3-.5 0 2 2.7 5.4 5.9zm-12.2-.3c0 .6.9 1.9 2 2.9s2 1.4 2 1c0-.5 1.2.2 2.8 1.6l2.7 2.4-2.4-2.7c-1.3-1.5-2.7-2.5-3.2-2.3-.4.3-1.5-.5-2.3-1.7-.9-1.2-1.6-1.8-1.6-1.2zm-44.8 6.3c.4 1.3 1.8 1.6 1.9.4 0-.4-.5-.9-1.1-1.2-.7-.2-1.1.2-.8.8zm-83.4 1.8c-.8 1-1.8 2.5-2.2 3.3-.4.8.2.3 1.4-1.3 1.2-1.5 2.7-2.4 3.2-2.1.7.4.8.2.4-.4-.9-1.5-1-1.5-2.8.5zm138.2.7c0 .2.8 1 1.8 1.7 1.5 1.3 1.6 1.2.3-.4s-2.1-2.1-2.1-1.3zm12 2c0 .3.9 1 2 1.6 1.1.6 2 .8 2 .6 0-.3-.9-1-2-1.6-1.1-.6-2-.8-2-.6zM61.3 63.2c-1.5 2-2.5 3.8-2 3.8.3 0 1.2-1.1 2.1-2.5 1.7-2.6 1.6-3.5-.1-1.3zM34.5 65c-.3.5-.1 1 .4 1 .6 0 1.1-.5 1.1-1 0-.6-.2-1-.4-1-.3 0-.8.4-1.1 1zm-1.6 3.9c1 .7 1 1.4-.3 4-2.2 4.2-1.3 3.9 1.3-.5 2.6-4.3 2.6-3.9-.1-4.1-1.6-.2-1.9 0-.9.6zm47.2 9.7c0 1.1.3 1.4.6.6.3-.7.2-1.6-.1-1.9-.3-.4-.6.2-.5 1.3zM71.3 83c0 3 .2 4.3.4 2.7.2-1.5.2-3.9 0-5.5-.2-1.5-.4-.2-.4 2.8zm41.7-2.5c0 .8.4 1.5 1 1.5.5 0 .7-.7.4-1.5-.4-.8-.8-1.5-1-1.5-.2 0-.4.7-.4 1.5zm111 3c-.6.8-1 2.2-.7 3.2.4 1.4.5 1.3.6-.5.1-1.3 1-2.6 2.4-3.2 1.5-.6 1.7-.9.6-.9-.9-.1-2.2.6-2.9 1.4zm8-1.1c0 .2.9.6 2 .9 1.1.3 1.8.1 1.4-.4-.5-.9-3.4-1.3-3.4-.5zm-6.6 3.7c-.3.6-.2 1.5.3 2s.9.1 1-1.1c.2-2.2-.2-2.5-1.3-.9zm4.6-.2c0 .6.4 1.3 1 1.6.6.3.7-.1.4-.9-.7-1.8-1.4-2.1-1.4-.7zm2.8-.2c.7.3 1.6.2 1.9-.1.4-.3-.2-.6-1.3-.5-1.1 0-1.4.3-.6.6zM81.2 90.5c0 1.6.2 2.2.5 1.2.2-.9.2-2.3 0-3-.3-.6-.5.1-.5 1.8zm145.2 1.3c2.9 3.1 5.9 4.1 7 2.3.3-.4-.7-.7-2.2-.5-1.5.2-2 .1-1-.2.9-.3 1.9-1.2 2.2-2 .5-1.3.3-1.3-1.6 0-2 1.4-2.4 1.4-4.8-.7-2-1.7-1.9-1.5.4 1.1zM24.6 93.5c-.3.9-.6 2.4-.5 3.3 0 .9.5.4 1-1.2.9-3.2.6-4.8-.5-2.1zm85.4.5c0 .5.5 1 1 1 .6 0 1-.5 1-1 0-.6-.4-1-1-1-.5 0-1 .4-1 1zm90.9 1.7c-1.3 1.7-1.3 1.7.6.3 1.1-.8 2.2-1.6 2.4-1.7.2-.2 0-.3-.6-.3s-1.7.8-2.4 1.7zm5.4-1c-.7.3-1.3.8-1.3 1.3 0 .9 4 2.5 5.4 2.2.5-.2.5.5.2 1.5-.5 1.3-.4 1.5.4.7.9-.9.8-1.7-.1-3.3-1.5-2.3-2.8-3-4.6-2.4zm17.2 1.3c1 1.1 2 2 2.3 2 .3 0-.3-.9-1.3-2s-2-2-2.3-2c-.3 0 .3.9 1.3 2zm-204.2.5c-.3.9-.3 1.8-.1 2.1.3.3.8-.4 1.1-1.6.6-2.3-.1-2.7-1-.5zm182.3 1.3c-.3.5.1.9.9.9s1.2-.4.9-.9c-.3-.4-.7-.8-.9-.8-.2 0-.6.4-.9.8zm-90 5.8c-.4 2-.5 3.8-.3 4 .3.3.8-1.1 1.1-3.2.4-2 .5-3.8.3-4-.3-.3-.8 1.1-1.1 3.2zm14.2-2.9c1.2.2 3 .2 4 0 .9-.3-.1-.5-2.3-.4-2.2 0-3 .2-1.7.4zm96.3 1.9c0 1.1.3 1.4.6.6.3-.7.2-1.6-.1-1.9-.3-.4-.6.2-.5 1.3zm-149.9 1.9c0 1.6.2 2.2.5 1.2.2-.9.2-2.3 0-3-.3-.6-.5.1-.5 1.8zm139.8-1.1c.7.7 1.3.7 2 0 .6-.6.3-1-1-1s-1.6.4-1 1zm-84.2.3c.7.3 1.6.2 1.9-.1.4-.3-.2-.6-1.3-.5-1.1 0-1.4.3-.6.6zm74.2 1.1c0 1.8 2.3 5.2 3.6 5.2.4 0-2.4-5.9-3.2-6.9-.2-.2-.4.5-.4 1.7zm-180.4 1.5c.3 1 .9 1.5 1.2 1.2.3-.3 0-1.1-.7-1.8-1-.9-1.1-.8-.5.6zm51.7 7.7c0 3 .2 4.3.4 2.7.2-1.5.2-3.9 0-5.5-.2-1.5-.4-.2-.4 2.8zm144.6-3.3c-1.3 1.6-1.2 1.7.4.4 1.6-1.3 2.1-2.1 1.3-2.1-.2 0-1 .8-1.7 1.7zm8.4 2.1-1.9 3.9 2.7-1.6c1.7-.9 2.7-2.4 2.7-3.8 0-3.4-1.3-2.8-3.5 1.5zm-69-2.1c.9.2 2.5.2 3.5 0 .9-.3.1-.5-1.8-.5-1.9 0-2.7.2-1.7.5zm7 0c.9.2 2.3.2 3 0 .6-.3-.1-.5-1.8-.5-1.6 0-2.2.2-1.2.5zm6.5 1c.7.3 1.6.2 1.9-.1.4-.3-.2-.6-1.3-.5-1.1 0-1.4.3-.6.6zm6.2 1.5c1.5 1.7 9 4.4 10.1 3.8.8-.6-.3-1.2-3-2-2.3-.6-5-1.4-5.9-1.7-.9-.3-1.5-.4-1.2-.1zm28 .6c0 .5.7 1.5 1.5 2.2.8.7 1.5.8 1.5.2 0-.5-.7-1.5-1.5-2.2-.8-.7-1.5-.8-1.5-.2zm9.4 1.5c-1.8 2.2-2.9 4.7-2 4.7.2 0 1.3-1.6 2.5-3.5 2.4-4.1 2.2-4.4-.5-1.2zm-68.5 1.4-2.4 2.8 2.8-2.4c2.5-2.3 3.2-3.1 2.4-3.1-.2 0-1.4 1.2-2.8 2.7zm-128.6 4.8c0 2.2.2 3 .4 1.7.2-1.2.2-3 0-4-.3-.9-.5.1-.4 2.3zm207.6-.8c-1.3 1.6-1.2 1.7.4.4.9-.7 1.7-1.5 1.7-1.7 0-.8-.8-.3-2.1 1.3zm-81 3-3.4 3.8 3.8-3.4c3.4-3.3 4.2-4.1 3.4-4.1-.2 0-1.9 1.7-3.8 3.7zm64.4 0c1.5.2 3.9.2 5.5 0 1.5-.2.2-.4-2.8-.4s-4.3.2-2.7.4zm-71.4 2c-1.3 1.6-1.2 1.7.4.4 1.6-1.3 2.1-2.1 1.3-2.1-.2 0-1 .8-1.7 1.7zm-119.2 1.7c-.4 1-.7 2.5-.6 3.4 0 1.1.4.9 1-.7.5-1.3.8-2.9.6-3.5-.2-.5-.6-.2-1 .8zm65.5 1.6c0 1.9.2 2.7.5 1.7.2-.9.2-2.5 0-3.5-.3-.9-.5-.1-.5 1.8zm17.4.5c-.9 2.6-.7 3.2.5 1.2.6-1 .9-2.1.6-2.3-.2-.3-.7.2-1.1 1.1zm17.8 8.7-1.9 2.3 2.3-1.9c2.1-1.8 2.7-2.6 1.9-2.6-.2 0-1.2 1-2.3 2.2zM78 138c0 .5.5 1 1.1 1 .5 0 .7-.5.4-1-.3-.6-.8-1-1.1-1-.2 0-.4.4-.4 1zm18.9 7.7c-1.3 1.6-1.2 1.7.4.4.9-.7 1.7-1.5 1.7-1.7 0-.8-.8-.3-2.1 1.3zm28.7 0c-.6 1.4-.5 1.5.5.6.7-.7 1-1.5.7-1.8-.3-.3-.9.2-1.2 1.2zm2.3 5c-1.3 1.6-1.2 1.7.4.4 1.6-1.3 2.1-2.1 1.3-2.1-.2 0-1 .8-1.7 1.7zm74.7 2.7c-.3 1.3-.9 3.2-1.2 4.3-.5 1.2-.4 1.5.3.8 1.1-1 2.8-7.5 2-7.5-.3 0-.8 1.1-1.1 2.4zm-81.8.3c.6.2 1.8.2 2.5 0 .6-.3.1-.5-1.3-.5-1.4 0-1.9.2-1.2.5zm16 2c.6.2 1.8.2 2.5 0 .6-.3.1-.5-1.3-.5-1.4 0-1.9.2-1.2.5zm17.9 2.2c-.4 1.7-.3 2.1.5 1.3.5-.5.8-1.6.6-2.3-.3-.8-.7-.3-1.1 1zm-76 .2c.7.7 1.5 1 1.8.7.3-.3-.2-.9-1.2-1.2-1.4-.6-1.5-.5-.6.5zm39.1 2.6c.7.3 1.6.2 1.9-.1.4-.3-.2-.6-1.3-.5-1.1 0-1.4.3-.6.6zm-10.8.7c0 .2.8 1 1.8 1.7 1.5 1.3 1.6 1.2.3-.4s-2.1-2.1-2.1-1.3zm37.1 6.2c0 1.1.3 1.4.6.6.3-.7.2-1.6-.1-1.9-.3-.4-.6.2-.5 1.3zm11.1 2.4c0 1.4.2 1.9.5 1.2.2-.6.2-1.8 0-2.5-.3-.6-.5-.1-.5 1.3zm-48.2.5c0 .8.7 1.5 1.6 1.5 1.4 0 1.4-.3.4-1.5-.7-.8-1.4-1.5-1.6-1.5-.2 0-.4.7-.4 1.5zm-29 .4c0 1 1.9 2.5 2.5 2 .1-.2-.3-1-1.1-1.7s-1.4-.8-1.4-.3zm120-.1c0 .6-.8.9-1.7.6-1.5-.5-1.6-.4-.3.5 1.6 1.1 4-.3 2.7-1.6-.4-.3-.7-.1-.7.5zm-4 3.2c-.9.6-1 1-.3 1 .6 0 1.5-.5 1.8-1 .8-1.2.4-1.2-1.5 0zm-93.4 2.5c.4.8 1.1 1.5 1.6 1.5.6 0 .5-.6-.2-1.5-.7-.8-1.4-1.5-1.6-1.5-.2 0-.1.7.2 1.5zm6.6 1.9-.2 3.9-2.2-1.9-2.2-1.9 2 2.7c2.4 3.3 3.7 2.2 3.1-2.8l-.4-3.9-.1 3.9zM128 177c0 1.1.2 2 .4 2s.6-.9.9-2c.3-1.1.1-2-.4-2s-.9.9-.9 2zm-6.8 1c0 1.4.2 1.9.5 1.2.2-.6.2-1.8 0-2.5-.3-.6-.5-.1-.5 1.3zm70.4-1.2c-.3.5.1 1.5.8 2.1 1.1 1 1.4.9 1.2-.3-.3-2.1-1.3-2.9-2-1.8zm-81.7 2.9c-1.1 1.5-1.1 1.6.1.5.8-.6 2.2-1.2 3.1-1.2 1 0 2 .6 2.2 1.2.3.8.6.6.6-.5.1-1.1-.6-1.7-2.3-1.7-1.3 0-3 .8-3.7 1.7zm32.7-.3c.3.8-.2 1.6-1.3 1.9-1.4.4-1.4.5.5.6 2.2.1 3.1-2.2 1.2-3.4-.5-.3-.7 0-.4.9zm3.4.3c0 1.1.3 1.4.8.7.4-.6 1.4-1.4 2.2-1.7 1-.4.8-.6-.7-.6-1.6-.1-2.3.5-2.3 1.6zm11.3-1c.9.2 2.5.2 3.5 0 .9-.3.1-.5-1.8-.5-1.9 0-2.7.2-1.7.5zm23.1.7c-.3.8-.4 2.3-.2 3.3.3 1.1.6.6.9-1.5.6-3.4.2-4.2-.7-1.8zm-42.8 1.4c-.2.4-.1 1.4.5 2.2.7 1.2.9 1 .9-.8 0-2.3-.5-2.8-1.4-1.4zm-37.5 1.8c0 1.1.3 1.4.6.6.3-.7.2-1.6-.1-1.9-.3-.4-.6.2-.5 1.3zm28 .1c-.1 1.8.4 2.3 2.2 2.3 1.2 0 2.9-.5 3.7-1 1.1-.7.6-.8-1.7-.4-2.5.5-3.2.2-3.6-1.2-.4-1.6-.5-1.5-.6.3zm21.5-.4c.3 1 .9 1.5 1.2 1.2.3-.3 0-1.1-.7-1.8-1-.9-1.1-.8-.5.6zm23.2 1.9c.6.6 1.8.8 2.8.6 1.4-.3 1.2-.5-.9-1-1.9-.3-2.5-.2-1.9.4zm-15 4.5c.7.3 1.6.2 1.9-.1.4-.3-.2-.6-1.3-.5-1.1 0-1.4.3-.6.6zm21.8 4.5c.3.5 1 .6 1.5.3 1.3-.9 1.1-1.2-.6-1.2-.8 0-1.2.4-.9.9zm-2.9 1.5c-.4.3-.7 1.1-.7 1.7 0 .6.5.5 1.2-.2.6-.6.9-1.4.7-1.7-.3-.3-.9-.2-1.2.2zM86 212c2 1.3 3.3 1.3 2.5 0-.3-.6-1.4-1-2.3-1-1.5 0-1.5.2-.2 1zm54 1.9c0 .5.9.7 2 .4 1.1-.3 2-.7 2-.9 0-.2-.9-.4-2-.4s-2 .4-2 .9zm-4 1.2c0 .5.5.7 1 .4.6-.3 1-.8 1-1.1 0-.2-.4-.4-1-.4-.5 0-1 .5-1 1.1zm-5.5.9c.3.5.8 1 1.1 1 .2 0 .4-.5.4-1 0-.6-.5-1-1.1-1-.5 0-.7.4-.4 1zm-30.2.7c.9.2 2.5.2 3.5 0 .9-.3.1-.5-1.8-.5-1.9 0-2.7.2-1.7.5z"/><path fill="#C9C" d="M140.8 27.7c.7.3 1.6.2 1.9-.1.4-.3-.2-.6-1.3-.5-1.1 0-1.4.3-.6.6zm-31 2c1.8.2 4.5.2 6 0s0-.4-3.3-.4-4.5.2-2.7.4zM188 55.9c0 .6.4 1.3 1 1.6.6.3.7-.1.4-.9-.7-1.8-1.4-2.1-1.4-.7zM227 84c-.9.6-1 1-.3 1 .6 0 1.5-.5 1.8-1 .8-1.2.4-1.2-1.5 0zM81.1 94.6c0 1.1.3 1.4.6.6.3-.7.2-1.6-.1-1.9-.3-.4-.6.2-.5 1.3zm139.3.5c-.3.6-.1 1.6.4 2.1.8.8 1.1.5.9-1.1-.1-2.4-.3-2.5-1.3-1zm-148.3 5.5c0 1.1.3 1.4.6.6.3-.7.2-1.6-.1-1.9-.3-.4-.6.2-.5 1.3zm36 10c0 1.1.3 1.4.6.6.3-.7.2-1.6-.1-1.9-.3-.4-.6.2-.5 1.3zm-87 8c0 1.1.3 1.4.6.6.3-.7.2-1.6-.1-1.9-.3-.4-.6.2-.5 1.3zm168.4 1.4c-.3.5-.2 1 .4 1 .5 0 1.3-.5 1.6-1 .3-.6.2-1-.4-1-.5 0-1.3.4-1.6 1zm-168.4 3.6c0 1.1.3 1.4.6.6.3-.7.2-1.6-.1-1.9-.3-.4-.6.2-.5 1.3zM153 158.9c0 .6.4 1.2.8 1.5.5.3.9-.1.9-.9s-.4-1.5-.9-1.5c-.4 0-.8.4-.8.9zm14 4.2c0 .5.5.7 1 .4.6-.3 1-.8 1-1.1 0-.2-.4-.4-1-.4-.5 0-1 .5-1 1.1zM60 164c0 .5.5 1 1 1 .6 0 1-.5 1-1 0-.6-.4-1-1-1-.5 0-1 .4-1 1zm74-.6c0 .2.7.7 1.6 1 .8.3 1.2.2.9-.4-.6-1-2.5-1.4-2.5-.6zm-27 4.3c0 .6.8 1.7 1.8 2.4 1.6 1.3 1.6 1.3.2-.6-.8-1.1-1.6-2.2-1.7-2.4-.2-.2-.3 0-.3.6zm29.8 5c.7.3 1.6.2 1.9-.1.4-.3-.2-.6-1.3-.5-1.1 0-1.4.3-.6.6zM41.6 181c.5.8.9 1.8.9 2.2 0 .5.4.8.8.9 1.8.2 1.6-.9-.5-2.7-1.3-1.1-1.8-1.3-1.2-.4zm5.1 7c1 1.1 1.9 2 2.1 2 .1 0-.2-.9-.8-2-.6-1.1-1.5-2-2-2-.6 0-.2.9.7 2zm139.3-1c-.8.5-1.2 1.2-.9 1.5.4.3 1.2-.1 1.9-1 1.4-1.7 1.1-1.9-1-.5zM56.8 197.7c.7.3 1.6.2 1.9-.1.4-.3-.2-.6-1.3-.5-1.1 0-1.4.3-.6.6zm8.2 5.7c0 .2.7.7 1.6 1 .8.3 1.2.2.9-.4-.6-1-2.5-1.4-2.5-.6zm58 13c0 .2.7.7 1.6 1 .8.3 1.2.2.9-.4-.6-1-2.5-1.4-2.5-.6z"/><g fill="#C99" stroke-width="0"><path d="M126.5 25c2.7 1.2 4.3 1.2 2.5 0-.8-.5-2.2-.9-3-.9-1 0-.8.3.5.9zm9.3 1.7c.6.2 1.8.2 2.5 0 .6-.3.1-.5-1.3-.5-1.4 0-1.9.2-1.2.5zm-41.6 3.1c-.7.5 1.6.7 5 .4 8.5-.5 9.6-1 2.3-1.1-3.3 0-6.6.3-7.3.7zm-8.4 1.9c.7.3 1.6.2 1.9-.1.4-.3-.2-.6-1.3-.5-1.1 0-1.4.3-.6.6zM44 57.2c-5.1 6-10.6 13.8-7.3 10.3 3-3.1 14.4-17.5 13.9-17.5-.3 0-3.3 3.3-6.6 7.2zm133.4.5c2.8 2.9 5.2 5 5.5 4.8.2-.3.2-.6 0-.8-.2-.1-2.7-2.2-5.4-4.7l-5-4.5 4.9 5.2zm-114 .2c-1.7 1-4.1 3.4-5.4 5.3l-2.2 3.3 3.3-3.7c1.9-2 4.8-4.3 6.4-5.2 1.7-.8 2.6-1.5 2-1.6-.5 0-2.4.9-4.1 1.9zm6.6.1c-2.3.7-2.3.8-.3.9 1.2.1 2.5-.4 2.8-.9.3-.6.5-1 .3-.9-.2.1-1.4.5-2.8.9zm49.6 3.6c-2.3 5-1.6 5.2 1.1.3 1.2-2.1 1.8-3.9 1.4-3.9-.4 0-1.5 1.6-2.5 3.6zm70.4-3.2c0 .2.8 1 1.8 1.7 1.5 1.3 1.6 1.2.3-.4s-2.1-2.1-2.1-1.3z"/><path d="M61.9 61.7c-1.3 1.6-1.2 1.7.4.4.9-.7 1.7-1.5 1.7-1.7 0-.8-.8-.3-2.1 1.3zm13.9 4.7c-.6 5.3-1.5 6.7-2.8 4.6-.5-.8-1.1-1.2-1.4-.9-.6.6 1.3 38.1 1.9 38.8.3.2.5-1.6.5-4 0-5.8.9-8.9 2.6-8.9.9 0 1.4-1.1 1.4-3 0-3.8 1.7-3.9 2.3-.3.2 1.6.5 0 .6-3.4.1-7.4-1.8-21.3-3-21.3-.5 0-.6-.6-.3-1.4.3-.8.1-2.2-.4-3.2-.7-1.3-1-.6-1.4 3zm120.8.9c.3 1 .9 1.5 1.2 1.2.3-.3 0-1.1-.7-1.8-1-.9-1.1-.8-.5.6zm-79.5.4c-.1.6-.4 2-.7 3-.5 1.7-.5 1.7.6 0 .6-1 .9-2.3.6-3-.3-.9-.5-.9-.5 0zm-61.5 3.8c-.9 2.6-.7 3.2.5 1.2.6-1 .9-2.1.6-2.3-.2-.3-.7.2-1.1 1.1zm143.4-.6c0 .6.4 1.3 1 1.6.6.3.7-.1.4-.9-.7-1.8-1.4-2.1-1.4-.7zM30.2 72.2c-1.4 1.7-6.8 12.8-7.7 15.5-1.2 4.1.2 2.4 2-2.5 1-2.6 3.1-6.8 4.7-9.5 2.7-4.6 3.1-6 1-3.5zm22.9 6.4c0 1.1.3 1.4.6.6.3-.7.2-1.6-.1-1.9-.3-.4-.6.2-.5 1.3zm149.9-.7c0 .6.4 1.3 1 1.6.6.3.7-.1.4-.9-.7-1.8-1.4-2.1-1.4-.7zm-88.9 1.7c0 1.1.3 1.4.6.6.3-.7.2-1.6-.1-1.9-.3-.4-.6.2-.5 1.3zM228 84.4c1.4.6 2.8 1.5 3.2 2.1.4.5.6.1.6-1-.2-1.5-1-2-3.2-2.1-3.1-.1-3.1-.1-.6 1zm5.5-.4c-.4.6-.1.9.6.8.7-.2 1.4.6 1.6 1.7.3 1.3.1 1.6-.4.8-.6-.8-.9 0-1 2.2l-.1 3.5 2-2.5c1.9-2.4 1.9-2.7.4-5-1.8-2.8-2.2-3-3.1-1.5zm-8.3 3.7c-1 .4-.6 1.3 1.4 3.4 2.9 3 4.8 3.6 5.9 1.9.3-.6-.1-.7-1-.4-1.7.7-5.8-3.3-4.9-4.7.6-1 .5-1-1.4-.2zm-177.1 6c-.1 4.1.2 5.3 1.4 5.3 1.7 0 2-2.1.6-3.6-.5-.5-1.1-2.3-1.4-3.9-.2-1.9-.5-1.1-.6 2.2zM216.7 97c-1.4 1.1-3 2-3.5 2-1.4 0-2.3 2.8-1.1 3.6.6.3 2.6-1.1 4.6-3.1 3.9-4.1 4-5.6 0-2.5zm5 0c.3 1.1.9 2.3 1.4 2.6 1.5.9 1 6.3-.8 9.2-2.8 4.5-6.6 8.7-7.5 8.4-.4-.1-.8.3-.8.8 0 3.7 7.3-2.8 10.5-9.5 2.8-5.6 2.7-8.3-.3-11.8-2-2.3-3.1-2.2-2.5.3zM108 105.7c-3.2 14.5-6.7 25.4-9.9 31.6-1.6 3.1-2.6 5.8-2.3 6.2.4.4.2.6-.3.4-.6-.1-1.8.2-2.9.6-2.8 1.2-4.9-.6-6.9-6.1-1.5-4.2-1.7-4.4-1.4-1.6.4 3.8-1.4 5.2-4 3.1-1.5-1.3-1.5-1.2-.1 1.6.9 1.7 2.5 3.8 3.6 4.8 2.3 2.1 9.8 3.4 8.6 1.5-.5-.7-.2-.9.9-.5 3.7 1.4 10.8-11.5 15.3-28.1 1.2-4.5 2.7-23.2 1.8-23.2-.1 0-1.1 4.4-2.4 9.7zm1.7.5c-.3.8-.6.5-.6-.6-.1-1.1.2-1.7.5-1.3.3.3.4 1.2.1 1.9zm-.4 6.9c-.8 2.9-1.3 2.3-1.3-1.4 0-2.2.3-2.8.9-1.8.5.7.6 2.2.4 3.2zM201 97c-1.2.7-1 .9.7.7 1.2 0 1.9-.5 1.7-.9-.6-1-.6-1-2.4.2zm-2 3.5c0 .9 1 3.9 2.1 6.6 1.5 3.4 2.6 4.8 3.6 4.5.8-.3 1.2-.2.9.3-.3.4 1 2.3 2.9 4.1 5.9 5.7 4.8 2.7-1.5-4.1-4.2-4.5-6-7.2-6-9.1 0-1.5-.4-3-1-3.3-.5-.3-1 .1-1 1zm-77.7 2.3c-3.1 2.3-4.3 7.1-3.2 12.3 1.1 4.7 3.8 10.2 3.9 7.9 0-1.3.1-1.3 1 0 1.3 2 1.3 3.3 0 2.5-.6-.3-.7.1-.3 1 .4 1.2.8 1.3 1.3.5s.9-.7 1.4.5c.8 2.2.8 2.7-.3 2.1-.4-.3-.6.5-.4 1.7.2 1.2-.3 3.1-1.2 4.2-.9 1.1-1.3 1.3-.9.5.7-1.3.6-1.3-.9-.1-1 .8-1.5 1.6-1.2 1.9.8.8-1.6 3.2-2.6 2.6-.9-.5-2.3 4-2.1 7 .2 2.9 3.2 5.6 6.4 5.6 1.7 0 2.7-.4 2.3-1-.3-.6.1-.7.9-.4 1.1.4 1.6 0 1.6-1.1 0-.9.4-1.4.9-1.1 2.3 1.4 7.1-8.1 7.1-14 0-3 .5-4.7 1.9-5.6 1-.7 5.1-4.3 9.1-8.1 3.9-3.7 7.8-6.7 8.6-6.7.8 0 1.4-.4 1.4-1 0-.5.7-.7 1.5-.4.8.4 1.5.1 1.5-.5s.6-.8 1.3-.6c.6.3 3.2.1 5.7-.4 4.1-.9 3.8-.9-3.4-.8-6 .1-8.4.6-10.2 2-1.3 1-2.6 1.7-2.9 1.5-.4-.2-1.3.8-2 2.2-.8 1.4-1.4 2-1.5 1.5 0-.6-.8.2-1.8 1.8-1 1.5-2.1 2.5-2.4 2.1-.4-.3-1.6.8-2.9 2.5-3.1 4.2-5.1 3.9-7.7-1.2l-2.2-4.2.6 3.6c.3 2 .2 3.9-.4 4.3-1.7 1-4.1-1.9-4.7-5.9-.6-3.6-.5-3.8.8-2.2 1.1 1.4 1.7 1.5 2.5.5s.4-2.4-1.4-5.3c-3.2-5.3-3.2-9.2.1-10.7 2-.9 2.8-.8 4.3.5 2 1.8 4.2 2.2 4.2.9 0-3.7-9.8-5.4-13.7-2.4zm5.8 35.4c.5 5.9-1 10.1-4.2 11.8-2.6 1.4-4.9-.3-4.9-3.6 0-4.3 8.8-12.2 9.1-8.2zm3.5 7.3c-.7 2.7-2.6 3.4-2.6 1 0-2 2.4-5.8 2.8-4.5.2.6.1 2.2-.2 3.5zm-110-31.9c-.9 2.2-.7 14.2.2 14.7.4.3.7-3.3.8-7.9 0-4.6-.1-8.4-.2-8.4s-.5.7-.8 1.6zm152.2-.9c.7.3 1.6.2 1.9-.1.4-.3-.2-.6-1.3-.5-1.1 0-1.4.3-.6.6zm51.9 4c-.4.3-.7 1.3-.6 2.2 0 1.2.3 1.1.9-.4.5-1.1.9-1.4.9-.7.1.7.6 1 1.1.7.6-.4.8-1.1.5-1.6-.7-1.1-1.9-1.2-2.8-.2zM188 118c.8.5 2 1 2.5 1 .6 0 .3-.5-.5-1s-1.9-1-2.5-1c-.5 0-.3.5.5 1zm5.1 2.8c2.4 3.7 21.6 8.1 23.4 5.2.4-.6 1.1-.8 1.6-.5.5.4.9.1.9-.5s.5-.8 1.3-.4c.8.5.8.2-.2-.9-1.5-1.9-2.6-2.3-1.5-.5.5.8.2.9-1 .5-.9-.4-1.5-.3-1.2.2 1.8 2.9-8.2 1.2-20.7-3.5-3.5-1.3-3.6-1.3-2.6.4zm27.8-.1c-1.3 1.6-1.2 1.7.4.4.9-.7 1.7-1.5 1.7-1.7 0-.8-.8-.3-2.1 1.3zM21 135c0 .5.5 1 1.1 1 .5 0 .7-.5.4-1-.3-.6-.8-1-1.1-1-.2 0-.4.4-.4 1zm-2.5 2c.3.5.8 1 1.1 1 .2 0 .4-.5.4-1 0-.6-.5-1-1.1-1-.5 0-.7.4-.4 1zm4.5 8c0 .5.5 1 1 1 .6 0 1-.5 1-1 0-.6-.4-1-1-1-.5 0-1 .4-1 1zm5.5 14.6c.8 2 1.5 3.8 1.5 4 0 .2.5.4 1 .4.6 0 .1-1.8-1-4-2.5-5-3.5-5.2-1.5-.4zm104.8-2.4c-1.8 2.5-.9 5.3 1.7 5.6 2.4.4 2.5.3.5-1.2-2-1.6-2-1.6.5-3.6 2.4-1.9 2.4-2 .4-2-1.2 0-2.6.6-3.1 1.2zm19.7-.1c0 .5.5.7 1 .4.6-.3 1-.8 1-1.1 0-.2-.4-.4-1-.4-.5 0-1 .5-1 1.1zM25 159c0 .5.5 1 1.1 1 .5 0 .7-.5.4-1-.3-.6-.8-1-1.1-1-.2 0-.4.4-.4 1zm28.9.8c-1.9 2-3.5 7.7-1.9 6.7 1.4-.8 5.3-8.5 4.3-8.4-.5 0-1.5.8-2.4 1.7zm-9.9.7c-.9 1.1-.9 1.5-.1 1.5.7 0 1 .3.7.8-.2.4.1 1.8.8 3.1.7 1.3 1.6 1.9 1.9 1.4.8-1.3-.3-5.3-1.5-5.3-.6 0-.8-.7-.4-1.5.3-.8.4-1.5.2-1.5s-.9.7-1.6 1.5zm16 1.5c0 .5.5 1 1 1 .6 0 1-.5 1-1 0-.6-.4-1-1-1-.5 0-1 .4-1 1zm5 0c0 .5.5 1 1 1 .6 0 1-.5 1-1 0-.6-.4-1-1-1-.5 0-1 .4-1 1zm38 0c-.7.5-1.9.6-2.7.3-1-.4-1.3.7-1.3 4.7 0 3.3.4 4.9 1 4.5.6-.4 1-1.4.9-2.3-.6-3.8 1.1-6.2 4.3-6.2 1.7 0 2.8-.3 2.4-.7-1-1-3.2-1.2-4.6-.3zm10.7.8c-2.2 2.4-2.1 4.6 0 6.3 1 .8 1.4.9 1 .2-1-1.5.2-2.2 4.7-2.5 4.4-.3 5.1-1 3.6-3.8-1.4-2.6-7-2.7-9.3-.2zm7.8 1.1c-.2 1.5-1.9 1.7-7.2.9-2.6-.3.7-2.4 4.1-2.5 2.6-.1 3.3.3 3.1 1.6zm53-1.6c-.8.4-1.9 1.7-2.5 2.7-.9 1.6-.7 2 .5 2 .8 0 1.5-.7 1.5-1.5 0-3.8 7-3.5 7 .3.1 1.5.2 1.5 1.5-.2.8-1.1 1.5-2.5 1.5-3.1 0-1.2-7.4-1.4-9.5-.2zM93 165.4c0 3.6-1 5.5-2.5 5-.7-.3-1.6-.1-1.9.5-.4.6.9.9 3.4.8 3.9-.1 4-.2 4-3.8 0-2.4-.5-3.9-1.5-4.3-1.1-.4-1.5.1-1.5 1.8zm14 .1c0 .6.7 2 1.5 3.1 1.4 1.8 1.5 1.7 1.3-1.2-.2-2.8-2.8-4.6-2.8-1.9zm58.4 1c-.7 3-1.2 3.1-3 .7-1.2-1.6-1.3-1.5-1.4.5 0 1.6.6 2.3 2 2.3 1.1 0 2 .6 2.1 1.2.1 1.5 2.8-4.1 2.9-6 0-2.2-2-1.2-2.6 1.3zM34.1 170c4.2 6.8 5.5 7.3 1.6.5-1.8-3-3.5-5.4-3.9-5.5-.4 0 .6 2.2 2.3 5zm163.4-2c-.9 1.6-1.3 3-1.1 3 .3 0 1.2-1.4 2.1-3 .9-1.7 1.3-3 1.1-3-.3 0-1.2 1.3-2.1 3zM84 167.9c0 1 .6 2.3 1.3 3 1.1.8 1.3.5.9-1.9-.5-3.3-2.2-4.1-2.2-1.1zm69 1c0 1.7.5 3.1 1 3.1.6 0 1-1.1 1-2.4 0-1.4-.4-2.8-1-3.1-.6-.4-1 .7-1 2.4zm-73.3-1.2c-.4.3-.7 1.1-.7 1.7 0 .6.5.5 1.2-.2.6-.6.9-1.4.7-1.7-.3-.3-.9-.2-1.2.2zm-8.1 1.2c-.4.6-1.3.8-2.1.4-1.1-.4-1.3-.1-.9 1.1.8 2.1 3 2.1 3.8 0 .7-1.9.1-3-.8-1.5zM148 170c0 1.1.5 2 1 2 .6 0 1-.9 1-2s-.4-2-1-2c-.5 0-1 .9-1 2zm32.7-1.3c-1.3 1.3-.7 3.3 1.1 3.3 1.3 0 1.4-.2.3-.9-.7-.5-1-1.4-.7-2 .8-1.2.3-1.5-.7-.4zm-40.3 1.8c-1.6 1.2-1.6 1.4-.3 1.5.9 0 2.2-.7 2.9-1.5 1.6-1.9 0-1.9-2.6 0z"/><path d="M35 175.8c0 1.6 19.4 21.2 21 21.2.7 0-.6-1.5-2.9-3.4-2.2-1.8-3.8-3.6-3.6-4 .3-.3.2-.4-.2-.1-.8.6-4.3-2.4-4.3-3.7 0-.5.5-.6 1.2-.2.7.4.8.3.4-.4-.4-.6-1.3-.9-2-.6-1.7.6-4.7-3.3-4-5.1.3-.7.1-1.6-.5-2-.7-.4-.9.1-.5 1.2.4 1.1-.4.6-2-1.2-1.4-1.7-2.5-2.4-2.6-1.7zm158.2.7c.2 1.1-.2 1.9-.9 1.8-.8-.2-1 .4-.6 1.5.3.9.3 1.4-.2 1-.4-.4-1.9.7-3.2 2.4-2.9 4-2.9 4.3.1 2.1 3.7-2.8 6.6-7.7 5.5-9.4-.8-1.1-.9-.9-.7.6zm-93 2.5c0 1.4.2 1.9.5 1.2.2-.6.2-1.8 0-2.5-.3-.6-.5-.1-.5 1.3zM58 198.4c0 .3.9 1 2 1.6 1.1.6 2 .8 2 .6 0-.3-.9-1-2-1.6-1.1-.6-2-.8-2-.6zm37.8 16.3c.6.2 1.8.2 2.5 0 .6-.3.1-.5-1.3-.5-1.4 0-1.9.2-1.2.5zm9.7 1.7c6.5 1.6 17.8 1.9 20.9.7 1.2-.4-1.7-.8-7-.9-4.9-.1-11.4-.4-14.4-.7l-5.5-.5 6 1.4z"/></g><path fill="#999" d="M121.3 24.7c.9.2 2.3.2 3 0 .6-.3-.1-.5-1.8-.5-1.6 0-2.2.2-1.2.5zm9.5 1c.7.3 1.6.2 1.9-.1.4-.3-.2-.6-1.3-.5-1.1 0-1.4.3-.6.6zM59.5 63c.3.5.1 1-.4 1-.6 0-1.1.7-1.1 1.6 0 .9-.5 1.2-1.2.8-.7-.5-.8-.3-.3.6.6 1 1.2.7 2.6-1.1 2.1-2.7 2.4-3.9.8-3.9-.5 0-.7.4-.4 1zM53 73.5c0 .8.4 1.5 1 1.5.5 0 .7-.7.4-1.5-.4-.8-.8-1.5-1-1.5-.2 0-.4.7-.4 1.5zm-3.2 9.2c-.2 4.2.3 12.7.8 13.3.3.2.4-1.6.4-4-.1-2.5.3-6.1.9-8 1.4-4.3 1.4-4-.4-4-.9 0-1.6 1-1.7 2.7zm174.9 1c-.4.3-.7 1.6-.6 2.7 0 1.9.1 1.9 1-.3 1-2.4.8-3.6-.4-2.4zm6.8.3c-.3.5-.2 1 .4 1 .5 0 1.3-.5 1.6-1 .3-.6.2-1-.4-1-.5 0-1.3.4-1.6 1zm2 4.9c-.8 1.4-1.5 5.1-.9 5.1.7 0 2.5-5.2 2-5.7-.2-.2-.7 0-1.1.6zm-17.6 7c-3.5 2.8-2 3.2 2 .4 1.9-1.3 2.7-2.3 1.9-2.3-.9 0-2.6.9-3.9 1.9zM49.7 101c.3 1.1.9 2 1.4 2 1.1 0 1.1-.3.3-2.4-.9-2.3-2.3-2-1.7.4zm-27.6 2.6c0 1.1.3 1.4.6.6.3-.7.2-1.6-.1-1.9-.3-.4-.6.2-.5 1.3zm199.9 1.3c0 .5.5 1.3 1 1.6.6.3 1 .2 1-.4 0-.5-.4-1.3-1-1.6-.5-.3-1-.2-1 .4zm-89.4 2.6c.4.8 1 1.5 1.5 1.5s.9-.7.9-1.5-.7-1.5-1.5-1.5c-.9 0-1.2.6-.9 1.5zm-111.4 2c0 1.6.2 2.2.5 1.2.2-.9.2-2.3 0-3-.3-.6-.5.1-.5 1.8zm197.3 1.6c-1 1.5.3 2.5 1.6 1.2.7-.7.7-1.3.1-1.7-.6-.3-1.4-.1-1.7.5zm-2.8 3.6c-.4.3-.7 1.3-.7 2.1 0 1.8 1.3.7 1.6-1.3.2-1.7.1-1.8-.9-.8zm12.3.2c0 .7-.5.9-1.2.5-.7-.5-.8-.3-.3.5.5.9 1 1 1.8.2.6-.6.8-1.4.4-1.8-.4-.3-.7-.1-.7.6zm-81.5 2.2c-.4.6-.5 1.2-.2 1.5.2.3.7-.2 1-1.1.7-1.7.1-2-.8-.4zm78.5 1.2c0 .9-.3 1.6-.7 1.5-1.5-.4-7.5 4-6.1 4.4 3 1.1 9.5-4.9 7.5-6.9-.4-.3-.7.1-.7 1zm-82 2.2c-.7.9-1.1 1.7-.9 2 .3.2 1-.5 1.7-1.5 1.4-2.4 1-2.6-.8-.5zm-21 2.1c0 1.5 3.1 7.6 3.7 7.1.2-.3-.5-2.2-1.6-4.4-1.1-2.1-2-3.3-2.1-2.7zm88.4 2.4c1.7.6 3.6.5 4.5 0 1.1-.7.3-.9-2.9-.9-4.2.1-4.3.1-1.6.9zm-74.4 2c-.9.6-1 1-.3 1 .6 0 1.5-.5 1.8-1 .8-1.2.4-1.2-1.5 0zm-117.8 6.5c0 1.6.2 2.2.5 1.2.2-.9.2-2.3 0-3-.3-.6-.5.1-.5 1.8zm4 4.5c0 1.4.2 1.9.5 1.2.2-.6.2-1.8 0-2.5-.3-.6-.5-.1-.5 1.3zm-3.1 1.6c0 1.1.3 1.4.6.6.3-.7.2-1.6-.1-1.9-.3-.4-.6.2-.5 1.3zm99.4-.5c-1.1 1.7.1 2.1 1.5.4.8-.9.8-1.5.2-1.5-.6 0-1.4.5-1.7 1.1zm-95.4 3.5c0 1.1.3 1.4.6.6.3-.7.2-1.6-.1-1.9-.3-.4-.6.2-.5 1.3zm-3 1c0 1.1.3 1.4.6.6.3-.7.2-1.6-.1-1.9-.3-.4-.6.2-.5 1.3zm22.2 13.8c0 .8.4 1.3.8 1 .4-.2 1 .2 1.3.8.3.7.5.4.3-.6-.2-2.3-2.4-3.3-2.4-1.2zm13.2-.4c.3.5.8 1 1.1 1 .2 0 .4-.5.4-1 0-.6-.5-1-1.1-1-.5 0-.7.4-.4 1zm4.1-.2c-.3.5.1.9.9.9s1.5-.4 1.5-.9c0-.4-.4-.8-.9-.8-.6 0-1.2.4-1.5.8zm77.8.3c-.5.8 0 1 1.9.7 1.5-.3 2.8-.1 3.1.4.2.5.3.3.2-.4-.3-1.7-4.2-2.2-5.2-.7zm10.1-.1c-.3.5.1 1 .9 1 .9 0 1.6-.5 1.6-1 0-.6-.4-1-.9-1-.6 0-1.3.4-1.6 1zm-40.5 6.4c0 .2.7.9 1.5 1.6 1.3 1.1 1.4 1 .9-.4-.5-1.4-2.4-2.3-2.4-1.2zm-78 2.5c0 .6.4 1.3 1 1.6.6.3.7-.1.4-.9-.7-1.8-1.4-2.1-1.4-.7zm50.6 4c-.4.7-.5 1.5-.2 1.8.9.9 1.9-.4 1.4-1.8-.4-1.1-.6-1.1-1.2 0zm7.1.6c.3.8.9 1.2 1.4.9 1.2-.7 1.1-1.1-.5-1.7-1-.4-1.3-.1-.9.8zm89 1c.3.8.9 1.2 1.4.9 1.2-.7 1.1-1.1-.5-1.7-1-.4-1.3-.1-.9.8z"/><path fill="#FCF" d="M176.9 193.7c-1.3 1.6-1.2 1.7.4.4 1.6-1.3 2.1-2.1 1.3-2.1-.2 0-1 .8-1.7 1.7z"/><path fill="#969" d="M65.3 57.7c-.7.2-1.3.8-1.3 1.3 0 1 3.8.1 4.6-1.1.6-1-1.3-1.1-3.3-.2zm-9.6 11.2c-.4 1.7-.3 2.1.5 1.3.5-.5.8-1.6.6-2.3-.3-.8-.7-.3-1.1 1zm15.4-.3c0 1.1.3 1.4.6.6.3-.7.2-1.6-.1-1.9-.3-.4-.6.2-.5 1.3zm-18.8 7.9c0 .8.4 1.2.9.9.4-.3.8-.9.8-1.5 0-.5-.4-.9-.8-.9-.5 0-.9.7-.9 1.5zm-3 13c-.3.9-.3 1.8-.1 2.1.3.3.8-.4 1.1-1.6.6-2.3-.1-2.7-1-.5zm133.3 78.2c-.4.9-.3 2 .1 2.4.4.4.9-.3.9-1.7.2-2.8-.1-3.1-1-.7zM162 171c0 .5.5 1 1.1 1 .5 0 .7-.5.4-1-.3-.6-.8-1-1.1-1-.2 0-.4.4-.4 1z"/><path fill="#966" d="m220.6 109.2-1.8 3.3 2.1-2.5c1.8-2.2 2.6-4 1.8-4-.1 0-1.1 1.5-2.1 3.2zm-3.6 4.9c0 .5.5.7 1 .4.6-.3 1-.8 1-1.1 0-.2-.4-.4-1-.4-.5 0-1 .5-1 1.1z"/><g fill="#C69" stroke-width="0"><path d="M69.7 59.7c-.4.3-.7 1.1-.7 1.7 0 .6.5.4 1.1-.4.9-1.2 1-1.1.6.6-.5 2.2 1.4 2.7 3 .9.4-.4.2-.5-.4-.1-.8.4-1.3.1-1.3-.9s.5-1.3 1.2-.9.8.3.4-.4c-.8-1.3-2.9-1.6-3.9-.5zm2.8 9.3c-.3.5-.1 1 .4 1 .6 0 1.1-.5 1.1-1 0-.6-.2-1-.4-1-.3 0-.8.4-1.1 1zM49.1 93.6c0 1.1.3 1.4.6.6.3-.7.2-1.6-.1-1.9-.3-.4-.6.2-.5 1.3zM124 120c0 1.1.7 2 1.5 2 1.3 0 1.4-.4.5-2-.6-1.1-1.3-2-1.5-2-.3 0-.5.9-.5 2z"/><path d="M127.5 122.2c-.4.9-.4 2.2 0 2.8.3.5.2 1-.4 1-.5 0-1.2-.8-1.4-1.8-.4-1.6-.5-1.6-.6 0 0 1 .8 2.2 1.9 2.8 2.5 1.4 3.8-1 2.2-4.3-.9-1.9-1.1-2-1.7-.5zm54.1 44.7c-.3.5.1 1.1.9 1.4.9.4 1.2.1.8-.9-.6-1.6-1-1.7-1.7-.5zM172 168c0 .5.5 1 1 1 .6 0 1-.5 1-1 0-.6-.4-1-1-1-.5 0-1 .4-1 1zm-7.9 1.9c-.8.5-.9 1.1-.3 1.5.5.3 1.2-.1 1.6-.9.6-1.7.6-1.8-1.3-.6z"/></g><path fill="#C66" d="M72 62.1c0 .5-.4.8-.8.5-.5-.3-.4 1 .2 2.8.9 3 1.2 3.2 2.3 1.7 1.1-1.3 1.1-1.1.3 1.3-1.3 3.7-.5 4.7 1.1 1.3.6-1.4.9-3.8.5-5.2-.6-2.2-.9-2.5-2.2-1.4-1.2 1-1.3.9-.8-.5.3-.9.3-1.6 0-1.6s-.6.5-.6 1.1zm54.5 59.2c-1.1 1.3-.8 4.7.3 4.7.4 0 .7-1.4.8-3 .1-1.7.1-3 0-3-.1.1-.6.6-1.1 1.3z"/><path fill="#F9C" d="M78.1 110.6c0 1.1.3 1.4.6.6.3-.7.2-1.6-.1-1.9-.3-.4-.6.2-.5 1.3zm-4 2c0 1.1.3 1.4.6.6.3-.7.2-1.6-.1-1.9-.3-.4-.6.2-.5 1.3zm2 0c0 1.1.3 1.4.6.6.3-.7.2-1.6-.1-1.9-.3-.4-.6.2-.5 1.3zm115.4 8.4c.3.5.8 1 1.1 1 .2 0 .4-.5.4-1 0-.6-.5-1-1.1-1-.5 0-.7.4-.4 1zm-111.7 8.8c-.4 1.3-.4 3.2 0 4.2.6 1.7.8 1.7 1.9-.6.6-1.3.7-2.2.3-1.9-.5.3-1-.5-1.2-1.7l-.3-2.3-.7 2.3zm56.6 33.3c-.3.5.6.9 2 .9 3.1 0 3.4-.6.6-1.3-1.1-.3-2.3-.1-2.6.4zM66 164c0 .5.5 1 1.1 1 .5 0 .7-.5.4-1-.3-.6-.8-1-1.1-1-.2 0-.4.4-.4 1zm-14.5 3c-.3.5-.1 1 .4 1 .6 0 1.1-.5 1.1-1 0-.6-.2-1-.4-1-.3 0-.8.4-1.1 1zm83.4 3.9c1.2.8 5.1.4 5.1-.5 0-.2-1.5-.4-3.2-.4-2.3 0-2.9.3-1.9.9zm50 15.8c-1.3 1.6-1.2 1.7.4.4 1.6-1.3 2.1-2.1 1.3-2.1-.2 0-1 .8-1.7 1.7z"/><path fill="#F99" d="M78 93c0 1.9-.5 3-1.4 3-2.8 0-3.7 11.8-1.1 14 1.3 1 1.5.9 1.5-1.1 0-1.8.3-2 .9-1 .7 1 1.1.8 1.6-1 .4-1.3 1.2-2.7 1.8-3 .6-.5.5-3-.4-7.3-1.3-6.9-2.9-8.8-2.9-3.6zm81 20c0 .5.5 1 1.1 1 .5 0 .7-.5.4-1-.3-.6-.8-1-1.1-1-.2 0-.4.4-.4 1zm-78.5 22.8c-.8 3.8.5 5.8 3 4.8 1.3-.5 1.4-1 .7-1.9-.6-.7-1.5-2.4-2-3.8-.9-2.4-.9-2.3-1.7.9zm48.7 7.2c-1.4 2.4-1.6 5-.2 5 1.1 0 2.4-4.3 1.8-6-.1-.5-.9-.1-1.6 1zm30.8 23.1c0 .5.5.7 1 .4.6-.3 1-.8 1-1.1 0-.2-.4-.4-1-.4-.5 0-1 .5-1 1.1z"/></svg>